<svg viewBox="0 0 155 41" fill="none" xmlns="http://www.w3.org/2000/svg">
<path d="M1.82 30V11.8H7.956C9.89733 11.8 11.5787 12.19 13 12.97C14.4213 13.75 15.522 14.8247 16.302 16.194C17.0993 17.5633 17.498 19.132 17.498 20.9C17.498 22.668 17.0993 24.2367 16.302 25.606C15.522 26.9753 14.4213 28.05 13 28.83C11.5787 29.61 9.89733 30 7.956 30H1.82ZM5.538 26.724H7.956C9.08267 26.724 10.0793 26.49 10.946 26.022C11.83 25.554 12.5233 24.8867 13.026 24.02C13.5287 23.136 13.78 22.096 13.78 20.9C13.78 19.6867 13.5287 18.6467 13.026 17.78C12.5233 16.9133 11.83 16.246 10.946 15.778C10.0793 15.31 9.08267 15.076 7.956 15.076H5.538V26.724ZM25.1973 30.312C23.9839 30.312 22.9266 30 22.0253 29.376C21.1239 28.752 20.4219 27.92 19.9193 26.88C19.4339 25.8227 19.1913 24.6613 19.1913 23.396C19.1913 22.096 19.4686 20.9173 20.0233 19.86C20.5953 18.8027 21.4099 17.9707 22.4673 17.364C23.5246 16.74 24.7899 16.428 26.2633 16.428C27.7539 16.428 29.0106 16.74 30.0333 17.364C31.0559 17.988 31.8359 18.8287 32.3733 19.886C32.9106 20.9433 33.1793 22.1133 33.1793 23.396V30H29.6173V27.79H29.5653C29.3053 28.258 28.9759 28.6827 28.5773 29.064C28.1959 29.4453 27.7279 29.7487 27.1733 29.974C26.6186 30.1993 25.9599 30.312 25.1973 30.312ZM26.2113 27.27C26.9046 27.27 27.5026 27.0967 28.0053 26.75C28.5079 26.4033 28.8893 25.9353 29.1493 25.346C29.4266 24.7393 29.5653 24.072 29.5653 23.344C29.5653 22.616 29.4266 21.966 29.1493 21.394C28.8893 20.8047 28.5079 20.3367 28.0053 19.99C27.5026 19.6433 26.9046 19.47 26.2113 19.47C25.5006 19.47 24.8853 19.6433 24.3653 19.99C23.8626 20.3367 23.4726 20.8047 23.1953 21.394C22.9353 21.966 22.8053 22.616 22.8053 23.344C22.8053 24.072 22.9353 24.7393 23.1953 25.346C23.4726 25.9353 23.8626 26.4033 24.3653 26.75C24.8853 27.0967 25.5006 27.27 26.2113 27.27ZM41.1533 30C39.9747 30 39.0473 29.662 38.3713 28.986C37.7127 28.31 37.3833 27.3913 37.3833 26.23V13.412H40.9453V26.126C40.9453 26.3513 41.0233 26.5507 41.1793 26.724C41.3527 26.88 41.552 26.958 41.7773 26.958H44.6633V30H41.1533ZM35.1213 19.782V16.74H44.6633V19.782H35.1213ZM52.1113 30.312C50.898 30.312 49.8406 30 48.9393 29.376C48.038 28.752 47.336 27.92 46.8333 26.88C46.348 25.8227 46.1053 24.6613 46.1053 23.396C46.1053 22.096 46.3826 20.9173 46.9373 19.86C47.5093 18.8027 48.324 17.9707 49.3813 17.364C50.4386 16.74 51.704 16.428 53.1773 16.428C54.668 16.428 55.9246 16.74 56.9473 17.364C57.97 17.988 58.75 18.8287 59.2873 19.886C59.8246 20.9433 60.0933 22.1133 60.0933 23.396V30H56.5313V27.79H56.4793C56.2193 28.258 55.89 28.6827 55.4913 29.064C55.11 29.4453 54.642 29.7487 54.0873 29.974C53.5326 30.1993 52.874 30.312 52.1113 30.312ZM53.1253 27.27C53.8186 27.27 54.4166 27.0967 54.9193 26.75C55.422 26.4033 55.8033 25.9353 56.0633 25.346C56.3406 24.7393 56.4793 24.072 56.4793 23.344C56.4793 22.616 56.3406 21.966 56.0633 21.394C55.8033 20.8047 55.422 20.3367 54.9193 19.99C54.4166 19.6433 53.8186 19.47 53.1253 19.47C52.4146 19.47 51.7993 19.6433 51.2793 19.99C50.7766 20.3367 50.3866 20.8047 50.1093 21.394C49.8493 21.966 49.7193 22.616 49.7193 23.344C49.7193 24.072 49.8493 24.7393 50.1093 25.346C50.3866 25.9353 50.7766 26.4033 51.2793 26.75C51.7993 27.0967 52.4146 27.27 53.1253 27.27ZM63.1274 30V26.724H66.4034V15.076H63.1274V11.8H73.3974V15.076H70.1214V26.724H73.3974V30H63.1274ZM76.44 30V22.382C76.44 21.29 76.6913 20.2933 77.194 19.392C77.714 18.4907 78.4593 17.7713 79.43 17.234C80.4007 16.6967 81.562 16.428 82.914 16.428C84.2833 16.428 85.4447 16.6967 86.398 17.234C87.3687 17.7713 88.1053 18.4907 88.608 19.392C89.128 20.2933 89.388 21.29 89.388 22.382V30H85.826V22.382C85.826 21.8447 85.696 21.3593 85.436 20.926C85.176 20.4753 84.8207 20.12 84.37 19.86C83.9367 19.6 83.4513 19.47 82.914 19.47C82.3767 19.47 81.8827 19.6 81.432 19.86C80.9987 20.12 80.652 20.4753 80.392 20.926C80.132 21.3593 80.002 21.8447 80.002 22.382V30H76.44ZM92.5842 30V17.104C92.5842 16.116 92.8182 15.2233 93.2862 14.426C93.7715 13.6287 94.4128 12.996 95.2102 12.528C96.0248 12.0427 96.9175 11.8 97.8882 11.8H104.466V15.076H98.3042C97.7495 15.076 97.2728 15.2753 96.8742 15.674C96.4928 16.0727 96.3022 16.5493 96.3022 17.104V20.042H103.582V23.318H96.3022V30H92.5842ZM107.061 30V11.02H110.623V30H107.061ZM120.363 30.312C118.993 30.312 117.771 30.0087 116.697 29.402C115.622 28.778 114.773 27.946 114.149 26.906C113.525 25.8487 113.213 24.67 113.213 23.37C113.213 22.07 113.525 20.9 114.149 19.86C114.773 18.8027 115.622 17.9707 116.697 17.364C117.771 16.74 118.993 16.428 120.363 16.428C121.732 16.428 122.954 16.74 124.029 17.364C125.103 17.9707 125.953 18.8027 126.577 19.86C127.201 20.9 127.513 22.07 127.513 23.37C127.513 24.67 127.201 25.8487 126.577 26.906C125.953 27.946 125.103 28.778 124.029 29.402C122.954 30.0087 121.732 30.312 120.363 30.312ZM120.363 27.27C121.091 27.27 121.715 27.0967 122.235 26.75C122.772 26.4033 123.179 25.9353 123.457 25.346C123.751 24.7567 123.899 24.098 123.899 23.37C123.899 22.642 123.751 21.9833 123.457 21.394C123.179 20.8047 122.772 20.3367 122.235 19.99C121.715 19.6433 121.091 19.47 120.363 19.47C119.635 19.47 119.002 19.6433 118.465 19.99C117.945 20.3367 117.537 20.8047 117.243 21.394C116.965 21.9833 116.827 22.642 116.827 23.37C116.827 24.098 116.965 24.7567 117.243 25.346C117.537 25.9353 117.945 26.4033 118.465 26.75C119.002 27.0967 119.635 27.27 120.363 27.27ZM135.03 30.312C134.128 30.312 133.305 30.1387 132.56 29.792C131.814 29.428 131.216 28.882 130.766 28.154C130.332 27.426 130.116 26.5073 130.116 25.398V16.74H133.678V25.918C133.678 26.1607 133.738 26.386 133.86 26.594C133.981 26.802 134.146 26.9667 134.354 27.088C134.562 27.2093 134.787 27.27 135.03 27.27C135.272 27.27 135.498 27.2093 135.706 27.088C135.914 26.9667 136.078 26.802 136.2 26.594C136.321 26.386 136.382 26.1607 136.382 25.918V21.342C136.382 20.302 136.581 19.418 136.98 18.69C137.396 17.962 137.968 17.4073 138.696 17.026C139.441 16.6273 140.308 16.428 141.296 16.428C142.284 16.428 143.142 16.6273 143.87 17.026C144.615 17.4073 145.187 17.962 145.586 18.69C146.002 19.418 146.21 20.302 146.21 21.342V25.918C146.21 26.1607 146.27 26.386 146.392 26.594C146.513 26.802 146.678 26.9667 146.886 27.088C147.094 27.2093 147.319 27.27 147.562 27.27C147.822 27.27 148.047 27.2093 148.238 27.088C148.446 26.9667 148.61 26.802 148.732 26.594C148.853 26.386 148.914 26.1607 148.914 25.918V16.74H152.476V25.398C152.476 26.5073 152.25 27.426 151.8 28.154C151.366 28.882 150.777 29.428 150.032 29.792C149.286 30.1387 148.463 30.312 147.562 30.312C146.678 30.312 145.863 30.1387 145.118 29.792C144.372 29.428 143.774 28.882 143.324 28.154C142.873 27.426 142.648 26.5073 142.648 25.398V20.822C142.648 20.562 142.587 20.3367 142.466 20.146C142.344 19.938 142.18 19.7733 141.972 19.652C141.781 19.5307 141.556 19.47 141.296 19.47C141.053 19.47 140.828 19.5307 140.62 19.652C140.412 19.7733 140.247 19.938 140.126 20.146C140.004 20.3367 139.944 20.562 139.944 20.822V25.398C139.944 26.5073 139.718 27.426 139.268 28.154C138.817 28.882 138.219 29.428 137.474 29.792C136.746 30.1387 135.931 30.312 135.03 30.312Z" fill="black"/>
</svg>
