<svg width="24" height="24" viewBox="0 0 24 24" fill="none" xmlns="http://www.w3.org/2000/svg">
  <path d="M5 21C4.45 21 3.97917 20.8042 3.5875 20.4125C3.19583 20.0208 3 19.55 3 19V5C3 4.45 3.19583 3.97917 3.5875 3.5875C3.97917 3.19583 4.45 3 5 3H19C19.55 3 20.0208 3.19583 20.4125 3.5875C20.8042 3.97917 21 4.45 21 5V19C21 19.55 20.8042 20.0208 20.4125 20.4125C20.0208 20.8042 19.55 21 19 21H5ZM5 19H19V5H5V19Z" fill="currentColor"/>
  <path d="M7.16532 17V10.3188H9.23955V17H7.16532ZM8.20087 9.40625C7.53649 9.40625 7 8.86563 7 8.20312C7 7.54062 7.53649 7 8.20087 7C8.86213 7 9.40175 7.54062 9.40175 8.20312C9.40175 8.86875 8.86525 9.40625 8.20087 9.40625ZM17 17H14.9289V13.75C14.9289 12.975 14.9133 11.9781 13.8528 11.9781C12.7736 11.9781 12.6082 12.8219 12.6082 13.6938V17H10.5371V10.3188H12.524V11.2313H12.5521C12.8297 10.7063 13.5066 10.1531 14.514 10.1531C16.6101 10.1531 17 11.5375 17 13.3375V17Z" fill="currentColor"/>
</svg>
