<svg width="24" height="24" viewBox="0 0 24 24" fill="none" xmlns="http://www.w3.org/2000/svg">
  <path d="M5 21C4.45 21 3.97917 20.8042 3.5875 20.4125C3.19583 20.0208 3 19.55 3 19V5C3 4.45 3.19583 3.97917 3.5875 3.5875C3.97917 3.19583 4.45 3 5 3H19C19.55 3 20.0208 3.19583 20.4125 3.5875C20.8042 3.97917 21 4.45 21 5V19C21 19.55 20.8042 20.0208 20.4125 20.4125C20.0208 20.8042 19.55 21 19 21H5ZM5 19H19V5H5V19Z" fill="#1C1B1F"/>
  <path d="M7.54933 17.1342V10.7202H9.54059V17.1342H7.54933ZM8.54346 9.84418C7.90566 9.84418 7.39062 9.32518 7.39062 8.68918C7.39062 8.05318 7.90566 7.53418 8.54346 7.53418C9.17827 7.53418 9.6963 8.05318 9.6963 8.68918C9.6963 9.32818 9.18127 9.84418 8.54346 9.84418ZM16.9906 17.1342H15.0024V14.0142C15.0024 13.2702 14.9874 12.3132 13.9693 12.3132C12.9332 12.3132 12.7745 13.1232 12.7745 13.9602V17.1342H10.7863V10.7202H12.6937V11.5962H12.7206C12.9871 11.0922 13.6369 10.5612 14.6041 10.5612C16.6163 10.5612 16.9906 11.8902 16.9906 13.6182V17.1342Z" fill="#1C1B1F"/>
</svg>
