<svg viewBox="0 0 385 136" fill="none" xmlns="http://www.w3.org/2000/svg">
<g clip-path="url(#clip0)">
<path d="M375.957 21.9629C377.734 21.9676 379.472 21.4466 380.951 20.4659C382.43 19.4853 383.583 18.0892 384.265 16.4545C384.947 14.8198 385.127 13.0201 384.781 11.2836C384.436 9.54704 383.581 7.95177 382.325 6.69995C381.069 5.44813 379.468 4.59613 377.725 4.2519C375.983 3.90767 374.177 4.08673 372.537 4.76636C370.896 5.446 369.495 6.59562 368.511 8.06954C367.527 9.54346 367.005 11.2753 367.009 13.0456C367.006 14.2175 367.236 15.3785 367.684 16.4618C368.133 17.5451 368.792 18.5294 369.623 19.358C370.455 20.1867 371.442 20.8434 372.529 21.2905C373.616 21.7375 374.781 21.9661 375.957 21.9629ZM375.957 19.9813C374.541 20.0092 373.149 19.6145 371.959 18.8477C370.77 18.081 369.838 16.9772 369.283 15.6784C368.728 14.3796 368.575 12.9451 368.845 11.5592C369.114 10.1733 369.794 8.89935 370.795 7.90115C371.797 6.90294 373.075 6.2261 374.466 5.95756C375.856 5.68901 377.296 5.84108 378.599 6.39419C379.902 6.94731 381.01 7.87617 381.779 9.06146C382.549 10.2467 382.945 11.6342 382.917 13.0456C382.947 13.9644 382.787 14.8795 382.447 15.7343C382.108 16.5892 381.597 17.3656 380.944 18.0156C380.292 18.6656 379.513 19.1754 378.655 19.5135C377.797 19.8516 376.879 20.0108 375.957 19.9813ZM377.875 13.6118C378.168 13.6007 378.455 13.5295 378.719 13.4026C378.983 13.2758 379.218 13.096 379.409 12.8746C379.6 12.6532 379.743 12.3949 379.829 12.1158C379.916 11.8368 379.943 11.543 379.911 11.2528C379.911 8.89371 378.514 8.56341 376.478 8.56341H372.643V17.3627H374.608V13.6118H375.957L377.946 17.3391H380.1L377.946 13.6118H377.875ZM374.513 12.2908V10.0732H376.502C377.354 10.0732 378.04 10.2856 378.04 11.182C378.04 12.0785 377.472 12.2908 376.502 12.2908H374.513ZM312.966 28.0729C322.861 28.0729 328.992 35.6691 328.992 44.7043C328.992 54.4472 322.411 61.2177 312.966 61.2177C303.521 61.2177 296.94 54.5416 296.94 44.7043C296.94 35.6455 303.072 28.0729 312.966 28.0729ZM312.966 0C286.927 0 265.623 17.4335 265.623 44.2561C265.623 71.6448 286.927 88.0639 312.966 88.0639C339.006 88.0639 360.31 71.5504 360.31 44.2561C360.31 17.4335 339.006 0 312.966 0ZM214.988 24.6759H217.947C223.06 24.6759 229.428 25.0061 229.428 31.753C229.428 38.5 223.51 39.5615 218.066 39.5615H214.988V24.723V24.6759ZM184.996 86.7192H214.988V61.029H230.896C248.271 61.029 259.184 50.1537 259.184 32.7203C259.184 11.4887 244.412 1.3683 224.433 1.3683H184.996V86.7192ZM128.183 28.0729C138.055 28.0729 144.209 35.6691 144.209 44.7043C144.209 54.4472 137.628 61.2177 128.183 61.2177C118.738 61.2177 112.158 54.5416 112.158 44.7043C112.158 35.6455 118.289 28.0729 128.183 28.0729ZM128.183 0C102.144 0 80.8396 17.4335 80.8396 44.2561C80.8396 71.6448 102.144 88.0639 128.183 88.0639C154.223 88.0639 175.527 71.5504 175.527 44.2561C175.527 17.4335 154.223 0 128.183 0ZM30.0397 24.6759H32.9987C38.1118 24.6759 44.4795 25.0061 44.4795 31.753C44.4795 38.5 38.5616 39.5615 33.117 39.5615H30.0397V24.723V24.6759ZM0.0473539 86.7192H30.0397V61.029H45.9472C63.3224 61.029 74.2351 50.1537 74.2351 32.7203C74.2351 11.4887 59.4639 1.3683 39.4611 1.3683H0V86.7192H0.0473539Z" fill="black"/>
<path d="M99.8718 130.433L102.76 129.843C103.407 132.296 105.443 133.523 108.867 133.523C109.993 133.556 111.103 133.261 112.063 132.674C112.469 132.429 112.803 132.082 113.031 131.668C113.26 131.254 113.375 130.787 113.365 130.315C113.365 128.742 112.252 127.775 110.027 127.413L105.908 126.634C104.481 126.41 103.149 125.779 102.073 124.818C101.6 124.356 101.228 123.801 100.984 123.187C100.739 122.573 100.626 121.916 100.653 121.256C100.644 120.473 100.813 119.699 101.15 118.991C101.486 118.284 101.98 117.663 102.594 117.175C104.088 116.01 105.955 115.424 107.849 115.523C112.094 115.523 114.706 117.175 115.685 120.477L112.891 121.067C112.525 120.088 111.842 119.258 110.951 118.707C110.06 118.156 109.011 117.916 107.968 118.024C106.898 117.976 105.837 118.238 104.914 118.779C104.542 118.992 104.235 119.303 104.027 119.677C103.818 120.051 103.716 120.474 103.73 120.902C103.73 122.333 104.74 123.237 106.76 123.615L110.572 124.299C114.548 125.022 116.537 126.941 116.537 130.055C116.551 130.902 116.356 131.739 115.967 132.492C115.579 133.245 115.011 133.891 114.312 134.372C112.572 135.55 110.494 136.13 108.394 136.023C103.817 136.039 100.976 134.176 99.8718 130.433Z" fill="black"/>
<path d="M133.746 129.678L136.563 130.244C136.047 131.913 134.989 133.365 133.557 134.372C132.021 135.471 130.168 136.043 128.278 136C127.059 136.041 125.846 135.81 124.728 135.325C123.61 134.839 122.615 134.111 121.816 133.193C120.18 131.058 119.294 128.447 119.294 125.762C119.294 123.076 120.18 120.465 121.816 118.331C122.615 117.409 123.609 116.676 124.726 116.182C125.843 115.689 127.056 115.448 128.278 115.476C129.437 115.432 130.59 115.647 131.655 116.104C132.72 116.561 133.669 117.249 134.433 118.118C136.15 120.383 136.991 123.189 136.8 126.021H122.597C122.461 127.086 122.556 128.167 122.875 129.193C123.193 130.218 123.728 131.164 124.443 131.966C125.525 132.932 126.92 133.476 128.373 133.499C129.568 133.553 130.747 133.206 131.722 132.513C132.696 131.82 133.409 130.822 133.746 129.678ZM133.581 123.757C133.571 122.765 133.387 121.783 133.036 120.855C132.685 119.985 132.094 119.233 131.332 118.685C130.493 118.079 129.479 117.764 128.444 117.788C127.726 117.777 127.014 117.917 126.353 118.197C125.693 118.477 125.099 118.893 124.609 119.416C123.512 120.603 122.882 122.144 122.834 123.757H133.581Z" fill="black"/>
<path d="M144.588 109.201V112.457H141.321V109.083L144.588 109.201ZM144.588 116.042V135.481H141.558V116.042H144.588Z" fill="black"/>
<path d="M159.383 133.405V135.764C158.458 135.895 157.524 135.966 156.59 135.976C152.818 135.976 150.932 134.011 150.932 130.079V118.283H147.476V115.924H150.932L151.074 111.041L153.891 110.782V115.948H158.176V118.307H153.82V130.527C153.82 132.54 154.862 133.539 156.945 133.523C157.759 133.55 158.575 133.511 159.383 133.405Z" fill="black"/>
<path d="M191.671 133.028V135.387H173.184V133.028H181.114V112.74C179.001 114.998 176.549 116.916 173.847 118.425V115.122C176.97 113.588 179.717 111.389 181.895 108.682H184.262V133.051L191.671 133.028Z" fill="black"/>
<path d="M194.512 130.692L197.163 129.725C197.584 130.83 198.343 131.776 199.333 132.428C200.323 133.08 201.493 133.405 202.679 133.358C203.827 133.407 204.966 133.138 205.969 132.579C206.972 132.021 207.8 131.196 208.36 130.197C209.758 127.564 210.436 124.61 210.325 121.633C209.461 123.401 208.017 124.823 206.233 125.662C204.448 126.501 202.43 126.708 200.511 126.249C198.592 125.789 196.889 124.691 195.682 123.135C194.475 121.58 193.836 119.66 193.873 117.694C193.855 116.507 194.079 115.328 194.531 114.229C194.982 113.131 195.652 112.135 196.501 111.301C197.476 110.402 198.623 109.708 199.874 109.261C201.124 108.815 202.452 108.624 203.778 108.702C205.105 108.779 206.402 109.122 207.591 109.71C208.781 110.299 209.84 111.12 210.704 112.126C212.613 114.936 213.545 118.292 213.355 121.681C213.528 125.338 212.551 128.958 210.562 132.037C209.679 133.318 208.483 134.354 207.088 135.048C205.692 135.741 204.142 136.069 202.584 136C200.84 136.122 199.105 135.669 197.646 134.709C196.187 133.75 195.085 132.338 194.512 130.692ZM203.271 123.733C204.127 123.766 204.98 123.619 205.775 123.302C206.57 122.985 207.29 122.505 207.887 121.893C208.476 121.314 208.943 120.623 209.26 119.861C209.577 119.1 209.738 118.282 209.733 117.458C209.745 116.669 209.596 115.885 209.295 115.155C208.994 114.426 208.547 113.764 207.981 113.212C207.377 112.614 206.654 112.149 205.86 111.844C205.065 111.54 204.216 111.403 203.365 111.442C202.518 111.401 201.671 111.542 200.883 111.855C200.094 112.168 199.383 112.647 198.797 113.259C197.68 114.464 197.078 116.054 197.116 117.694C197.077 118.529 197.224 119.362 197.547 120.133C197.871 120.904 198.362 121.594 198.986 122.152C200.134 123.173 201.614 123.743 203.152 123.757L203.271 123.733Z" fill="black"/>
<path d="M224.244 135.481H220.835C220.837 131.056 221.756 126.679 223.534 122.624C225.143 118.768 227.383 115.204 230.162 112.079H215.959L216.29 109.201H233.713V111.159C230.707 114.672 228.307 118.658 226.611 122.954C225.117 126.655 224.315 130.596 224.244 134.585C224.244 134.773 224.244 135.072 224.244 135.481Z" fill="black"/>
<path d="M254.828 114.556L251.846 115.358C251.502 114.166 250.767 113.123 249.759 112.396C248.75 111.669 247.526 111.3 246.283 111.348C241.343 111.348 238.81 115.421 238.684 123.568C239.34 121.905 240.509 120.493 242.022 119.534C243.394 118.687 244.976 118.237 246.59 118.236C247.738 118.209 248.879 118.421 249.939 118.86C250.999 119.299 251.955 119.954 252.745 120.784C253.527 121.595 254.139 122.553 254.545 123.602C254.952 124.651 255.144 125.77 255.112 126.894C255.128 128.081 254.904 129.259 254.452 130.357C254.001 131.456 253.332 132.452 252.485 133.287C251.521 134.208 250.376 134.921 249.123 135.381C247.87 135.841 246.536 136.039 245.202 135.961C243.869 135.884 242.566 135.533 241.376 134.931C240.185 134.328 239.131 133.488 238.281 132.461C236.3 129.681 235.324 126.312 235.512 122.907C235.408 119.361 236.32 115.859 238.139 112.81C238.984 111.45 240.183 110.343 241.608 109.608C243.034 108.873 244.633 108.536 246.235 108.635C248.133 108.484 250.024 108.991 251.59 110.07C253.156 111.149 254.3 112.734 254.828 114.556ZM245.809 133.429C247.059 133.459 248.29 133.12 249.346 132.454C250.402 131.787 251.236 130.824 251.743 129.685C252.25 128.546 252.406 127.283 252.193 126.056C251.979 124.828 251.405 123.692 250.544 122.789C249.99 122.2 249.319 121.733 248.572 121.42C247.826 121.107 247.021 120.954 246.212 120.973C245.334 120.955 244.461 121.116 243.648 121.444C242.834 121.773 242.095 122.262 241.477 122.884C240.849 123.45 240.347 124.141 240.004 124.914C239.662 125.686 239.486 126.521 239.489 127.366C239.49 128.152 239.647 128.929 239.952 129.654C240.257 130.379 240.703 131.036 241.264 131.588C241.85 132.179 242.552 132.644 243.325 132.952C244.099 133.261 244.929 133.407 245.762 133.381L245.809 133.429Z" fill="black"/>
</g>
<defs>
<clipPath id="clip0">
<rect width="385" height="136" fill="white"/>
</clipPath>
</defs>
</svg>
