<svg width="1582" height="1043" viewBox="0 0 1582 1043" fill="none" xmlns="http://www.w3.org/2000/svg">
  <g clip-path="url(#clip0_121_130)">
    <path fill-rule="evenodd" clip-rule="evenodd" d="M1817.7 698.776C1687.12 759 1574.29 917.883 1283.85 806.749C1508.71 843.226 1660.69 766.035 1817.7 698.776Z" fill="url(#paint0_radial_121_130)"/>
    <path fill-rule="evenodd" clip-rule="evenodd" d="M1817.7 698.776C1687.12 759 1574.29 917.883 1283.85 806.749C1508.71 843.226 1660.69 766.035 1817.7 698.776Z" fill="url(#paint1_radial_121_130)"/>
    <path fill-rule="evenodd" clip-rule="evenodd" d="M1817.7 698.776C1687.12 759 1574.29 917.883 1283.85 806.749C1508.71 843.226 1660.69 766.035 1817.7 698.776Z" fill="url(#paint2_radial_121_130)"/>
    <path d="M323.74 583.572C207.853 555.264 91.9656 545.533 0 617.887V645.483C116.59 555.63 236.161 577.38 323.74 583.572Z" fill="url(#paint3_radial_121_130)"/>
    <path d="M323.74 583.572C207.853 555.264 91.9656 545.533 0 617.887V645.483C116.59 555.63 236.161 577.38 323.74 583.572Z" fill="url(#paint4_radial_121_130)"/>
    <path d="M323.74 583.572C207.853 555.264 91.9656 545.533 0 617.887V645.483C116.59 555.63 236.161 577.38 323.74 583.572Z" fill="url(#paint5_radial_121_130)"/>
    <path fill-rule="evenodd" clip-rule="evenodd" d="M1221.26 256.215C1360.17 297.509 1341.46 495.133 1197.51 549.773C1316.11 483.58 1307.63 306.245 1221.26 256.215Z" fill="url(#paint6_radial_121_130)"/>
    <path fill-rule="evenodd" clip-rule="evenodd" d="M1221.26 256.215C1360.17 297.509 1341.46 495.133 1197.51 549.773C1316.11 483.58 1307.63 306.245 1221.26 256.215Z" fill="url(#paint7_radial_121_130)"/>
    <path fill-rule="evenodd" clip-rule="evenodd" d="M772.898 480.056C662.348 388.086 594.485 205.413 285.177 237.589C492.462 247.826 637.265 380.654 772.898 480.056Z" fill="url(#paint8_radial_121_130)"/>
    <path fill-rule="evenodd" clip-rule="evenodd" d="M772.898 480.056C662.348 388.086 594.485 205.413 285.177 237.589C492.462 247.826 637.265 380.654 772.898 480.056Z" fill="url(#paint9_radial_121_130)"/>
    <path fill-rule="evenodd" clip-rule="evenodd" d="M772.898 480.056C662.348 388.086 594.485 205.413 285.177 237.589C492.462 247.826 637.265 380.654 772.898 480.056Z" fill="url(#paint10_radial_121_130)"/>
    <mask id="mask0_121_130" style="mask-type:alpha" maskUnits="userSpaceOnUse" x="0" y="71" width="1697" height="736">
      <path fill-rule="evenodd" clip-rule="evenodd" d="M1170.29 772.021C1348.4 830.054 1535.81 811.323 1696.03 741.56L1687.01 602.829C1581.46 628.53 1494.78 638.833 1419.37 638.242C1694.59 374.959 1446.5 44.7301 1135.96 73.5098C900.898 92.4386 716.111 303.582 828.713 515.095C807.821 505.052 786.928 494.243 766.041 482.915C736.97 467.15 706.581 444.905 672.914 420.261C539.954 322.936 355.876 188.193 0 267.342V597.256C159.966 492.951 400.225 578.484 622.159 675.116C786.777 746.791 985.121 810.85 1170.29 772.021ZM1196.46 561.643C1357.89 501.804 1370.75 287.652 1217.77 238.585C1019.68 175.044 889.987 464.895 1121.07 573.518C1125.13 575.145 1129.18 576.754 1133.23 578.342C1154.34 574.92 1175.42 569.441 1196.46 561.643Z" fill="white"/>
    </mask>
    <g mask="url(#mask0_121_130)">
      <ellipse cx="1367.2" cy="405.467" rx="580.319" ry="419.631" fill="white"/>
      <ellipse cx="1367.2" cy="405.467" rx="580.319" ry="419.631" fill="url(#paint11_radial_121_130)"/>
      <ellipse cx="1367.2" cy="405.467" rx="580.319" ry="419.631" fill="url(#paint12_radial_121_130)"/>
      <ellipse cx="1367.2" cy="405.467" rx="580.319" ry="419.631" fill="url(#paint13_radial_121_130)"/>
      <ellipse cx="1343.95" cy="383.733" rx="548.265" ry="335.076" transform="rotate(4.3472 1343.95 383.733)" fill="white"/>
      <ellipse cx="1343.95" cy="383.733" rx="548.265" ry="335.076" transform="rotate(4.3472 1343.95 383.733)" fill="url(#paint14_radial_121_130)"/>
      <ellipse cx="1343.95" cy="383.733" rx="548.265" ry="335.076" transform="rotate(4.3472 1343.95 383.733)" fill="url(#paint15_radial_121_130)"/>
      <ellipse cx="1343.95" cy="383.733" rx="548.265" ry="335.076" transform="rotate(4.3472 1343.95 383.733)" fill="url(#paint16_radial_121_130)"/>
      <path d="M1217.77 238.585C1370.75 287.652 1357.89 501.804 1196.46 561.643C1054.08 614.417 909.923 560.945 766.041 482.915C622.159 404.886 445.988 168.152 0 267.342V597.256C159.966 492.951 400.225 578.484 622.159 675.116C848.209 773.539 1137.85 857.601 1369.65 680.612C1744.21 394.62 1427.45 -5.02011 1071.63 84.56C811.394 150.075 816.494 519.382 1122.51 574.191C889.45 466.098 1019.27 174.913 1217.77 238.585Z" fill="white"/>
      <path d="M1217.77 238.585C1370.75 287.652 1357.89 501.804 1196.46 561.643C1054.08 614.417 909.923 560.945 766.041 482.915C622.159 404.886 445.988 168.152 0 267.342V597.256C159.966 492.951 400.225 578.484 622.159 675.116C848.209 773.539 1137.85 857.601 1369.65 680.612C1744.21 394.62 1427.45 -5.02011 1071.63 84.56C811.394 150.075 816.494 519.382 1122.51 574.191C889.45 466.098 1019.27 174.913 1217.77 238.585Z" fill="url(#paint17_radial_121_130)"/>
      <path d="M1217.77 238.585C1370.75 287.652 1357.89 501.804 1196.46 561.643C1054.08 614.417 909.923 560.945 766.041 482.915C622.159 404.886 445.988 168.152 0 267.342V597.256C159.966 492.951 400.225 578.484 622.159 675.116C848.209 773.539 1137.85 857.601 1369.65 680.612C1744.21 394.62 1427.45 -5.02011 1071.63 84.56C811.394 150.075 816.494 519.382 1122.51 574.191C889.45 466.098 1019.27 174.913 1217.77 238.585Z" fill="url(#paint18_radial_121_130)"/>
      <path d="M1217.77 238.585C1370.75 287.652 1357.89 501.804 1196.46 561.643C1054.08 614.417 909.923 560.945 766.041 482.915C622.159 404.886 445.988 168.152 0 267.342V597.256C159.966 492.951 400.225 578.484 622.159 675.116C848.209 773.539 1137.85 857.601 1369.65 680.612C1744.21 394.62 1427.45 -5.02011 1071.63 84.56C811.394 150.075 816.494 519.382 1122.51 574.191C889.45 466.098 1019.27 174.913 1217.77 238.585Z" fill="url(#paint19_radial_121_130)"/>
      <path d="M1196.46 561.565C1053.25 612.035 875.227 584.618 728.035 513.201C580.844 441.785 271.181 213.512 0 352.384V597.18C123.881 469.291 413.961 464.933 635.895 561.565C861.945 659.989 1137.85 857.524 1369.65 680.536C1744.21 394.544 1432.69 1.84793 1077.72 82.6366C1355.22 32.4475 1597 420.404 1196.46 561.565Z" fill="white"/>
      <path d="M1196.46 561.565C1053.25 612.035 875.227 584.618 728.035 513.201C580.844 441.785 271.181 213.512 0 352.384V597.18C123.881 469.291 413.961 464.933 635.895 561.565C861.945 659.989 1137.85 857.524 1369.65 680.536C1744.21 394.544 1432.69 1.84793 1077.72 82.6366C1355.22 32.4475 1597 420.404 1196.46 561.565Z" fill="url(#paint20_radial_121_130)"/>
      <path d="M1196.46 561.565C1053.25 612.035 875.227 584.618 728.035 513.201C580.844 441.785 271.181 213.512 0 352.384V597.18C123.881 469.291 413.961 464.933 635.895 561.565C861.945 659.989 1137.85 857.524 1369.65 680.536C1744.21 394.544 1432.69 1.84793 1077.72 82.6366C1355.22 32.4475 1597 420.404 1196.46 561.565Z" fill="url(#paint21_radial_121_130)"/>
      <path d="M1196.46 561.565C1053.25 612.035 875.227 584.618 728.035 513.201C580.844 441.785 271.181 213.512 0 352.384V597.18C123.881 469.291 413.961 464.933 635.895 561.565C861.945 659.989 1137.85 857.524 1369.65 680.536C1744.21 394.544 1432.69 1.84793 1077.72 82.6366C1355.22 32.4475 1597 420.404 1196.46 561.565Z" fill="url(#paint22_radial_121_130)"/>
      <ellipse cx="1142.54" cy="319.498" rx="271.532" ry="244.668" fill="white"/>
      <ellipse cx="1142.54" cy="319.498" rx="271.532" ry="244.668" fill="url(#paint23_radial_121_130)"/>
      <ellipse cx="1142.54" cy="319.498" rx="271.532" ry="244.668" fill="url(#paint24_radial_121_130)"/>
      <ellipse cx="1142.54" cy="319.498" rx="271.532" ry="244.668" fill="url(#paint25_radial_121_130)"/>
      <ellipse cx="1100.17" cy="356.687" rx="232.375" ry="218.38" transform="rotate(30 1100.17 356.687)" fill="white"/>
      <ellipse cx="1100.17" cy="356.687" rx="232.375" ry="218.38" transform="rotate(30 1100.17 356.687)" fill="url(#paint26_radial_121_130)"/>
      <ellipse cx="1100.17" cy="356.687" rx="232.375" ry="218.38" transform="rotate(30 1100.17 356.687)" fill="url(#paint27_radial_121_130)"/>
    </g>
  </g>
  <defs>
    <radialGradient id="paint0_radial_121_130" cx="0" cy="0" r="1" gradientUnits="userSpaceOnUse" gradientTransform="translate(1616.5 801.81) rotate(-105.018) scale(316.824 684.854)">
      <stop stop-color="#FB8B0B" stop-opacity="0.5"/>
      <stop offset="1" stop-color="white" stop-opacity="0"/>
    </radialGradient>
    <radialGradient id="paint1_radial_121_130" cx="0" cy="0" r="1" gradientUnits="userSpaceOnUse" gradientTransform="translate(2259.58 963.886) rotate(-53.8358) scale(839.108 1813.84)">
      <stop stop-color="#6F0BFB" stop-opacity="0.5"/>
      <stop offset="1" stop-color="white" stop-opacity="0"/>
    </radialGradient>
    <radialGradient id="paint2_radial_121_130" cx="0" cy="0" r="1" gradientUnits="userSpaceOnUse" gradientTransform="translate(2069.17 1279.04) rotate(-78.0498) scale(828.742 1791.43)">
      <stop stop-color="#FB8B0B" stop-opacity="0.5"/>
      <stop offset="1" stop-color="white" stop-opacity="0"/>
    </radialGradient>
    <radialGradient id="paint3_radial_121_130" cx="0" cy="0" r="1" gradientUnits="userSpaceOnUse" gradientTransform="translate(377.125 429.093) rotate(113.079) scale(286.997 516.486)">
      <stop stop-color="#FB8B0B" stop-opacity="0.5"/>
      <stop offset="1" stop-color="white" stop-opacity="0"/>
    </radialGradient>
    <radialGradient id="paint4_radial_121_130" cx="0" cy="0" r="1" gradientUnits="userSpaceOnUse" gradientTransform="translate(847.812 438.61) rotate(74.0645) scale(783.227 1327.54)">
      <stop stop-color="#6F0BFB" stop-opacity="0.5"/>
      <stop offset="1" stop-color="white" stop-opacity="0"/>
    </radialGradient>
    <radialGradient id="paint5_radial_121_130" cx="0" cy="0" r="1" gradientUnits="userSpaceOnUse" gradientTransform="translate(775.164 98.1897) rotate(92.2502) scale(797.11 1272.39)">
      <stop stop-color="#FB8B0B" stop-opacity="0.5"/>
      <stop offset="1" stop-color="white" stop-opacity="0"/>
    </radialGradient>
    <radialGradient id="paint6_radial_121_130" cx="0" cy="0" r="1" gradientUnits="userSpaceOnUse" gradientTransform="translate(1316.05 509.305) rotate(75.7284) scale(632.933 1368.16)">
      <stop stop-color="#6F0BFB" stop-opacity="0.5"/>
      <stop offset="1" stop-color="white" stop-opacity="0"/>
    </radialGradient>
    <radialGradient id="paint7_radial_121_130" cx="0" cy="0" r="1" gradientUnits="userSpaceOnUse" gradientTransform="translate(1365.57 256.215) rotate(113.438) scale(766.096 1656.01)">
      <stop stop-color="#FB8B0B" stop-opacity="0.5"/>
      <stop offset="1" stop-color="white" stop-opacity="0"/>
    </radialGradient>
    <radialGradient id="paint8_radial_121_130" cx="0" cy="0" r="1" gradientUnits="userSpaceOnUse" gradientTransform="translate(605.215 328.456) rotate(120.018) scale(316.824 684.854)">
      <stop stop-color="#FB8B0B" stop-opacity="0.5"/>
      <stop offset="1" stop-color="white" stop-opacity="0"/>
    </radialGradient>
    <radialGradient id="paint9_radial_121_130" cx="0" cy="0" r="1" gradientUnits="userSpaceOnUse" gradientTransform="translate(1268.33 338.345) rotate(68.8358) scale(839.108 1813.84)">
      <stop stop-color="#6F0BFB" stop-opacity="0.5"/>
      <stop offset="1" stop-color="white" stop-opacity="0"/>
    </radialGradient>
    <radialGradient id="paint10_radial_121_130" cx="0" cy="0" r="1" gradientUnits="userSpaceOnUse" gradientTransform="translate(1165.98 -15.3558) rotate(93.0498) scale(828.742 1791.43)">
      <stop stop-color="#FB8B0B" stop-opacity="0.5"/>
      <stop offset="1" stop-color="white" stop-opacity="0"/>
    </radialGradient>
    <radialGradient id="paint11_radial_121_130" cx="0" cy="0" r="1" gradientUnits="userSpaceOnUse" gradientTransform="translate(1258.42 891.909) rotate(-147.554) scale(906.689 1800.71)">
      <stop stop-color="#FB8B0B" stop-opacity="0.7"/>
      <stop offset="1" stop-color="white" stop-opacity="0"/>
    </radialGradient>
    <radialGradient id="paint12_radial_121_130" cx="0" cy="0" r="1" gradientUnits="userSpaceOnUse" gradientTransform="translate(847.202 724.668) rotate(39.9218) scale(960.279 624.097)">
      <stop stop-color="#6F0BFB" stop-opacity="0.6"/>
      <stop offset="1" stop-color="white" stop-opacity="0"/>
    </radialGradient>
    <radialGradient id="paint13_radial_121_130" cx="0" cy="0" r="1" gradientUnits="userSpaceOnUse" gradientTransform="translate(711.45 364.012) rotate(45.7421) scale(857.194 728.9)">
      <stop stop-color="#FB8B0B" stop-opacity="0.6"/>
      <stop offset="1" stop-color="white" stop-opacity="0"/>
    </radialGradient>
    <radialGradient id="paint14_radial_121_130" cx="0" cy="0" r="1" gradientUnits="userSpaceOnUse" gradientTransform="translate(1017.48 771.441) rotate(-24.99) scale(1142.27 732.549)">
      <stop stop-color="#FB8B0B"/>
      <stop offset="1" stop-color="white" stop-opacity="0"/>
    </radialGradient>
    <radialGradient id="paint15_radial_121_130" cx="0" cy="0" r="1" gradientUnits="userSpaceOnUse" gradientTransform="translate(542.416 178.127) rotate(20.8269) scale(1329.99 1635.54)">
      <stop stop-color="#6F0BFB" stop-opacity="0.6"/>
      <stop offset="1" stop-color="white" stop-opacity="0"/>
    </radialGradient>
    <radialGradient id="paint16_radial_121_130" cx="0" cy="0" r="1" gradientUnits="userSpaceOnUse" gradientTransform="translate(604.323 -57.0736) rotate(31.9664) scale(1214.04 1164.28)">
      <stop stop-color="#FB8B0B" stop-opacity="0.54"/>
      <stop offset="1" stop-color="white" stop-opacity="0"/>
    </radialGradient>
    <radialGradient id="paint17_radial_121_130" cx="0" cy="0" r="1" gradientUnits="userSpaceOnUse" gradientTransform="translate(709.108 673.388) rotate(117.433) scale(652.357 1060.05)">
      <stop stop-color="#FB8B0B" stop-opacity="0.5"/>
      <stop offset="0.910163" stop-color="white" stop-opacity="0"/>
    </radialGradient>
    <radialGradient id="paint18_radial_121_130" cx="0" cy="0" r="1" gradientUnits="userSpaceOnUse" gradientTransform="translate(1145.01 720.14) rotate(97.8481) scale(686.054 1241.39)">
      <stop stop-color="#6F0BFB" stop-opacity="0.5"/>
      <stop offset="1" stop-color="white" stop-opacity="0"/>
    </radialGradient>
    <radialGradient id="paint19_radial_121_130" cx="0" cy="0" r="1" gradientUnits="userSpaceOnUse" gradientTransform="translate(1137.83 259.397) rotate(104.947) scale(696.867 1506.36)">
      <stop stop-color="#FB8B0B" stop-opacity="0.5"/>
      <stop offset="1" stop-color="white" stop-opacity="0"/>
    </radialGradient>
    <radialGradient id="paint20_radial_121_130" cx="0" cy="0" r="1" gradientUnits="userSpaceOnUse" gradientTransform="translate(829.917 390.519) rotate(179.003) scale(1219.57 1480.23)">
      <stop stop-color="#FB8B0B" stop-opacity="0.7"/>
      <stop offset="1" stop-color="white" stop-opacity="0"/>
    </radialGradient>
    <radialGradient id="paint21_radial_121_130" cx="0" cy="0" r="1" gradientUnits="userSpaceOnUse" gradientTransform="translate(1587.69 470.331) rotate(139.334) scale(1409.37 1441.53)">
      <stop stop-color="#6F0BFB" stop-opacity="0.6"/>
      <stop offset="1" stop-color="white" stop-opacity="0"/>
    </radialGradient>
    <radialGradient id="paint22_radial_121_130" cx="0" cy="0" r="1" gradientUnits="userSpaceOnUse" gradientTransform="translate(1242.43 -209.106) rotate(85.1009) scale(1468.14 1442.68)">
      <stop stop-color="#FB8B0B" stop-opacity="0.6"/>
      <stop offset="1" stop-color="white" stop-opacity="0"/>
    </radialGradient>
    <radialGradient id="paint23_radial_121_130" cx="0" cy="0" r="1" gradientUnits="userSpaceOnUse" gradientTransform="translate(934.3 481.327) rotate(-148.661) scale(424.292 1052.68)">
      <stop stop-color="#FB8B0B" stop-opacity="0.7"/>
      <stop offset="1" stop-color="white" stop-opacity="0"/>
    </radialGradient>
    <radialGradient id="paint24_radial_121_130" cx="0" cy="0" r="1" gradientUnits="userSpaceOnUse" gradientTransform="translate(1384.59 495.119) rotate(110.41) scale(1077.46 594.596)">
      <stop stop-color="#6F0BFB" stop-opacity="0.6"/>
      <stop offset="1" stop-color="white" stop-opacity="0"/>
    </radialGradient>
    <radialGradient id="paint25_radial_121_130" cx="0" cy="0" r="1" gradientUnits="userSpaceOnUse" gradientTransform="translate(1406.18 -272.639) rotate(94.4253) scale(1368.58 1029.06)">
      <stop stop-color="#FB8B0B" stop-opacity="0.6"/>
      <stop offset="1" stop-color="white" stop-opacity="0"/>
    </radialGradient>
    <radialGradient id="paint26_radial_121_130" cx="0" cy="0" r="1" gradientUnits="userSpaceOnUse" gradientTransform="translate(743.171 874.056) rotate(8.75681) scale(959.842 1662.74)">
      <stop stop-color="#6F0BFB" stop-opacity="0.8"/>
      <stop offset="1" stop-color="white" stop-opacity="0"/>
    </radialGradient>
    <radialGradient id="paint27_radial_121_130" cx="0" cy="0" r="1" gradientUnits="userSpaceOnUse" gradientTransform="translate(879.335 131.643) rotate(66.2423) scale(788.517 1521.1)">
      <stop stop-color="#FB8B0B" stop-opacity="0.64"/>
      <stop offset="1" stop-color="white" stop-opacity="0"/>
    </radialGradient>
    <clipPath id="clip0_121_130">
      <rect width="1582" height="1043" fill="white"/>
    </clipPath>
  </defs>
</svg>
